<?xml version="1.0" standalone="no"?>
<!DOCTYPE svg PUBLIC "-//W3C//DTD SVG 20010904//EN"
 "http://www.w3.org/TR/2001/REC-SVG-20010904/DTD/svg10.dtd">
<svg version="1.0" xmlns="http://www.w3.org/2000/svg"
 width="300.000000pt" height="300.000000pt" viewBox="0 0 300.000000 300.000000"
 preserveAspectRatio="xMidYMid meet">
<metadata>
Created by potrace 1.14, written by Peter Selinger 2001-2017
</metadata>
<g transform="translate(0.000000,300.000000) scale(0.100000,-0.100000)"
fill="#000000" stroke="none">
<path d="M2068 2266 c-1 -2 -38 -6 -81 -9 -83 -7 -226 -50 -298 -90 -40 -23
-44 -28 -43 -64 0 -21 3 -54 7 -73 4 -19 9 -48 12 -65 3 -16 8 -46 11 -65 3
-19 8 -46 10 -60 9 -55 14 -66 40 -81 25 -15 31 -15 111 11 176 57 332 21 406
-92 45 -71 57 -250 23 -333 -8 -19 -15 -38 -15 -40 0 -3 -10 -15 -21 -27 -11
-12 -20 -25 -20 -28 0 -4 -25 -19 -56 -35 -48 -24 -68 -28 -137 -28 -89 -1
-101 1 -196 32 -35 12 -69 21 -76 21 -14 0 -48 -35 -51 -53 -1 -7 -5 -30 -9
-52 -3 -22 -8 -51 -10 -65 -3 -14 -7 -41 -10 -60 -3 -19 -10 -61 -16 -93 -12
-70 -8 -77 70 -116 131 -66 241 -85 451 -79 76 2 231 55 323 110 59 35 227
201 227 223 0 3 11 22 24 43 12 20 23 39 23 42 1 3 7 21 15 41 9 19 24 66 34
105 25 95 25 312 0 404 -29 109 -112 267 -153 293 -7 4 -13 12 -13 18 0 16
-79 86 -150 132 -110 73 -221 113 -340 123 -36 3 -70 7 -77 9 -6 2 -13 2 -15
1z"/>
<path d="M318 2222 c-16 -2 -36 -15 -47 -31 l-20 -28 196 -494 c136 -342 197
-508 199 -539 1 -25 3 -116 3 -203 l1 -157 29 -18 c24 -15 54 -17 229 -16 111
1 213 5 227 8 42 11 47 36 49 240 l2 191 48 110 c26 61 51 119 56 130 5 11 41
99 81 195 39 96 77 189 84 205 8 17 43 100 78 185 55 134 62 159 53 183 -6 15
-20 30 -31 34 -29 9 -476 6 -485 -4 -7 -7 -31 -74 -36 -98 -1 -5 -25 -86 -53
-180 -29 -93 -54 -178 -56 -189 -2 -10 -6 -20 -7 -22 -2 -1 -37 106 -77 239
-41 133 -77 246 -82 251 -7 8 -381 15 -441 8z"/>
</g>
</svg>
