<?xml version="1.0" encoding="UTF-8"?>
<svg xmlns="http://www.w3.org/2000/svg" xmlns:xlink="http://www.w3.org/1999/xlink" width="26px" height="26px" viewBox="0 0 26 26" version="1.1">
<g id="surface1">
<path style=" stroke:none;fill-rule:nonzero;fill:rgb(0%,0%,0%);fill-opacity:1;" d="M 12.980469 6.308594 C 9.296875 6.308594 6.300781 9.304688 6.300781 12.988281 C 6.300781 16.667969 9.296875 19.660156 12.980469 19.660156 C 16.660156 19.660156 19.652344 16.664062 19.652344 12.988281 C 19.65625 9.304688 16.660156 6.308594 12.980469 6.308594 Z M 12.980469 17.117188 C 10.703125 17.117188 8.851562 15.265625 8.851562 12.988281 C 8.851562 10.710938 10.703125 8.859375 12.980469 8.859375 C 15.257812 8.859375 17.109375 10.710938 17.109375 12.988281 C 17.109375 15.265625 15.257812 17.117188 12.980469 17.117188 Z M 18.4375 0.128906 L 7.523438 0.128906 C 3.441406 0.128906 0.121094 3.449219 0.121094 7.53125 L 0.121094 18.445312 C 0.121094 22.523438 3.441406 25.84375 7.523438 25.84375 L 18.4375 25.84375 C 22.515625 25.84375 25.835938 22.523438 25.835938 18.445312 L 25.835938 7.53125 C 25.835938 3.449219 22.519531 0.128906 18.4375 0.128906 Z M 23.289062 18.445312 C 23.289062 21.121094 21.113281 23.296875 18.4375 23.296875 L 7.523438 23.296875 C 4.847656 23.296875 2.671875 21.121094 2.671875 18.445312 L 2.671875 7.53125 C 2.671875 4.855469 4.847656 2.679688 7.523438 2.679688 L 18.4375 2.679688 C 21.113281 2.679688 23.289062 4.855469 23.289062 7.53125 Z M 19.746094 4.382812 C 18.785156 4.382812 18 5.164062 18 6.128906 C 18 7.089844 18.78125 7.875 19.746094 7.875 C 20.710938 7.875 21.496094 7.09375 21.496094 6.128906 C 21.496094 5.164062 20.710938 4.382812 19.746094 4.382812 Z M 19.746094 4.382812 "/>
</g>
</svg>
