<?xml version="1.0" encoding="UTF-8"?>
<svg xmlns="http://www.w3.org/2000/svg" xmlns:xlink="http://www.w3.org/1999/xlink" width="26px" height="26px" viewBox="0 0 26 26" version="1.1">
<g id="surface1">
<path style=" stroke:none;fill-rule:nonzero;fill:rgb(0%,0%,0%);fill-opacity:1;" d="M 22.632812 1.621094 L 3.367188 1.621094 C 2.445312 1.621094 1.695312 2.351562 1.695312 3.253906 L 1.695312 22.746094 C 1.695312 23.648438 2.445312 24.375 3.367188 24.375 L 22.632812 24.375 C 23.554688 24.375 24.304688 23.648438 24.304688 22.746094 L 24.304688 3.253906 C 24.300781 2.351562 23.554688 1.621094 22.632812 1.621094 Z M 8.546875 20.664062 L 5.136719 20.664062 L 5.136719 10.394531 L 8.546875 10.394531 Z M 6.84375 8.992188 L 6.820312 8.992188 C 5.671875 8.992188 4.933594 8.207031 4.933594 7.21875 C 4.933594 6.207031 5.699219 5.441406 6.863281 5.441406 C 8.035156 5.441406 8.75 6.207031 8.773438 7.21875 C 8.773438 8.207031 8.035156 8.992188 6.84375 8.992188 Z M 20.863281 20.664062 L 17.445312 20.664062 L 17.445312 15.171875 C 17.445312 13.789062 16.953125 12.847656 15.71875 12.847656 C 14.773438 12.847656 14.210938 13.484375 13.964844 14.097656 C 13.875 14.316406 13.855469 14.625 13.855469 14.929688 L 13.855469 20.671875 L 10.4375 20.671875 C 10.4375 20.671875 10.484375 11.363281 10.4375 10.398438 L 13.855469 10.398438 L 13.855469 11.851562 C 14.308594 11.152344 15.121094 10.15625 16.929688 10.15625 C 19.175781 10.15625 20.863281 11.625 20.863281 14.78125 Z M 20.863281 20.664062 "/>
</g>
</svg>
