<?xml version="1.0" encoding="UTF-8"?>
<svg xmlns="http://www.w3.org/2000/svg" xmlns:xlink="http://www.w3.org/1999/xlink" width="26px" height="26px" viewBox="0 0 26 26" version="1.1">
<g id="surface1">
<path style=" stroke:none;fill-rule:nonzero;fill:rgb(0%,0%,0%);fill-opacity:1;" d="M 24.375 5.941406 C 23.539062 6.3125 22.636719 6.5625 21.695312 6.675781 C 22.660156 6.097656 23.398438 5.183594 23.746094 4.09375 C 22.84375 4.628906 21.84375 5.019531 20.78125 5.230469 C 19.929688 4.320312 18.71875 3.753906 17.375 3.753906 C 14.796875 3.753906 12.707031 5.84375 12.707031 8.421875 C 12.707031 8.789062 12.746094 9.144531 12.824219 9.484375 C 8.945312 9.289062 5.507812 7.433594 3.207031 4.605469 C 2.804688 5.296875 2.574219 6.097656 2.574219 6.953125 C 2.574219 8.574219 3.398438 10.003906 4.648438 10.839844 C 3.882812 10.816406 3.164062 10.605469 2.535156 10.253906 L 2.535156 10.3125 C 2.535156 12.578125 4.144531 14.460938 6.277344 14.890625 C 5.890625 14.996094 5.476562 15.054688 5.050781 15.054688 C 4.746094 15.054688 4.457031 15.027344 4.171875 14.972656 C 4.765625 16.824219 6.488281 18.175781 8.53125 18.214844 C 6.933594 19.464844 4.925781 20.210938 2.734375 20.210938 C 2.359375 20.210938 1.988281 20.1875 1.621094 20.144531 C 3.6875 21.46875 6.140625 22.242188 8.777344 22.242188 C 17.363281 22.242188 22.058594 15.128906 22.058594 8.960938 C 22.058594 8.757812 22.054688 8.558594 22.046875 8.359375 C 22.957031 7.699219 23.75 6.878906 24.375 5.941406 Z M 24.375 5.941406 "/>
</g>
</svg>
